<?xml version="1.0" encoding="UTF-8"?>
<svg id="Calque_2" data-name="Calque 2" xmlns="http://www.w3.org/2000/svg" viewBox="0 0 588 164">
  <defs>
    <style>
      .cls-1 {
        stroke: #000;
        stroke-miterlimit: 10;
      }

      .cls-2 {
        fill: #f7971e;
      }

      .cls-3 {
        fill: #fff;
      }
    </style>
  </defs>
  <rect class="cls-1" x=".5" y=".5" width="587" height="163"/>
  <g>
    <path class="cls-3" d="M13.8,122.19V38.37H30.94v32.99h33.57V38.37h17.13V122.19h-17.13v-36.65H30.94v36.65H13.8Z"/>
    <path class="cls-3" d="M111.4,80l-14.76-2.63c1.66-5.87,4.52-10.21,8.57-13.04,4.05-2.82,10.07-4.23,18.06-4.23,7.25,0,12.66,.85,16.21,2.54,3.55,1.7,6.05,3.85,7.5,6.46,1.45,2.61,2.17,7.4,2.17,14.38l-.17,18.75c0,5.34,.26,9.27,.78,11.81,.52,2.54,1.5,5.25,2.92,8.15h-16.09c-.43-1.07-.95-2.65-1.56-4.75-.27-.95-.46-1.58-.58-1.89-2.78,2.67-5.75,4.67-8.91,6-3.17,1.33-6.54,2-10.13,2-6.33,0-11.32-1.7-14.96-5.09-3.65-3.39-5.47-7.68-5.47-12.86,0-3.43,.83-6.49,2.49-9.18,1.66-2.69,3.98-4.75,6.98-6.17,2.99-1.43,7.3-2.68,12.94-3.75,7.6-1.41,12.87-2.72,15.8-3.95v-1.6c0-3.09-.77-5.29-2.32-6.6-1.54-1.32-4.46-1.97-8.74-1.97-2.89,0-5.15,.56-6.77,1.69-1.62,1.12-2.93,3.1-3.94,5.92Zm21.77,13.04c-2.08,.69-5.38,1.51-9.9,2.46-4.52,.95-7.47,1.89-8.86,2.8-2.12,1.49-3.18,3.37-3.18,5.66s.85,4.19,2.55,5.83c1.7,1.64,3.86,2.46,6.48,2.46,2.93,0,5.73-.95,8.39-2.86,1.97-1.45,3.26-3.22,3.88-5.32,.42-1.37,.64-3.98,.64-7.83v-3.2Z"/>
    <path class="cls-3" d="M221.09,122.19h-16.27v-30.99c0-6.56-.35-10.8-1.04-12.72-.69-1.92-1.82-3.42-3.39-4.49-1.56-1.07-3.44-1.6-5.64-1.6-2.82,0-5.35,.76-7.58,2.29-2.24,1.52-3.77,3.54-4.6,6.06-.83,2.52-1.24,7.17-1.24,13.95v27.5h-16.27V61.47h15.11v8.92c5.36-6.86,12.12-10.29,20.26-10.29,3.59,0,6.87,.64,9.84,1.92,2.97,1.28,5.22,2.91,6.74,4.89,1.52,1.98,2.58,4.23,3.18,6.75,.6,2.52,.9,6.12,.9,10.81v37.74Z"/>
    <path class="cls-3" d="M236.08,126.19l18.58,2.23c.31,2.13,1.02,3.6,2.14,4.4,1.54,1.14,3.97,1.71,7.29,1.71,4.24,0,7.43-.63,9.55-1.89,1.43-.84,2.51-2.19,3.24-4.06,.5-1.33,.75-3.79,.75-7.38v-8.86c-4.86,6.56-11,9.83-18.41,9.83-8.26,0-14.8-3.45-19.62-10.35-3.78-5.45-5.67-12.24-5.67-20.35,0-10.18,2.48-17.95,7.44-23.33,4.96-5.37,11.12-8.06,18.49-8.06s13.87,3.3,18.81,9.89v-8.52h15.22v54.49c0,7.17-.6,12.52-1.79,16.07-1.2,3.54-2.88,6.33-5.04,8.35-2.16,2.02-5.05,3.6-8.65,4.75-3.61,1.14-8.17,1.71-13.69,1.71-10.42,0-17.81-1.76-22.17-5.29-4.36-3.53-6.54-8-6.54-13.41,0-.53,.02-1.18,.06-1.94Zm14.53-35.62c0,6.44,1.26,11.16,3.79,14.15,2.53,2.99,5.64,4.49,9.35,4.49,3.97,0,7.33-1.53,10.07-4.6,2.74-3.07,4.11-7.61,4.11-13.64s-1.31-10.96-3.94-14.01c-2.62-3.05-5.94-4.57-9.96-4.57s-7.11,1.5-9.64,4.49c-2.53,2.99-3.79,7.56-3.79,13.69Z"/>
  </g>
  <rect class="cls-2" x="312.84" y="9.31" width="257.12" height="147.92" rx="12.36" ry="12.36"/>
  <g>
    <path d="M331.58,122.19V38.37h25.64l15.4,57.18,15.22-57.18h25.7V122.19h-15.92V56.21l-16.84,65.98h-16.5l-16.79-65.98V122.19h-15.92Z"/>
    <path d="M442.61,80l-14.76-2.63c1.66-5.87,4.52-10.21,8.57-13.04,4.05-2.82,10.07-4.23,18.06-4.23,7.25,0,12.66,.85,16.21,2.54,3.55,1.7,6.05,3.85,7.5,6.46,1.45,2.61,2.17,7.4,2.17,14.38l-.17,18.75c0,5.34,.26,9.27,.78,11.81,.52,2.54,1.5,5.25,2.92,8.15h-16.09c-.42-1.07-.95-2.65-1.56-4.75-.27-.95-.46-1.58-.58-1.89-2.78,2.67-5.75,4.67-8.91,6-3.17,1.33-6.54,2-10.13,2-6.33,0-11.32-1.7-14.96-5.09-3.65-3.39-5.47-7.68-5.47-12.86,0-3.43,.83-6.49,2.49-9.18s3.98-4.75,6.98-6.17c2.99-1.43,7.3-2.68,12.94-3.75,7.6-1.41,12.87-2.73,15.8-3.95v-1.6c0-3.09-.77-5.29-2.32-6.6-1.54-1.32-4.46-1.97-8.74-1.97-2.89,0-5.15,.56-6.77,1.69-1.62,1.12-2.93,3.1-3.94,5.92Zm21.77,13.04c-2.08,.69-5.38,1.51-9.9,2.46-4.52,.95-7.47,1.89-8.86,2.8-2.12,1.49-3.18,3.37-3.18,5.66s.85,4.19,2.55,5.83c1.7,1.64,3.86,2.46,6.48,2.46,2.93,0,5.73-.95,8.39-2.86,1.97-1.45,3.26-3.22,3.88-5.32,.42-1.37,.64-3.98,.64-7.83v-3.2Z"/>
    <path d="M552.3,122.19h-16.27v-30.99c0-6.56-.35-10.8-1.04-12.72-.7-1.92-1.82-3.42-3.39-4.49-1.56-1.07-3.44-1.6-5.64-1.6-2.82,0-5.35,.76-7.58,2.29-2.24,1.52-3.77,3.54-4.6,6.06s-1.24,7.17-1.24,13.95v27.5h-16.27V61.47h15.11v8.92c5.36-6.86,12.12-10.29,20.26-10.29,3.59,0,6.87,.64,9.84,1.92,2.97,1.28,5.22,2.91,6.74,4.89,1.52,1.98,2.58,4.23,3.18,6.75s.9,6.12,.9,10.81v37.74Z"/>
  </g>
</svg>