<?xml version="1.0" encoding="UTF-8"?>
<svg id="Calque_2" data-name="Calque 2" xmlns="http://www.w3.org/2000/svg" viewBox="0 0 587.5 164.85">
  <defs>
    <style>
      .cls-1, .cls-2 {
        stroke: #000;
        stroke-miterlimit: 10;
      }

      .cls-3 {
        fill: #f2f2f2;
      }

      .cls-2 {
        fill: #f7971e;
      }
    </style>
  </defs>
  <rect class="cls-1" x=".72" y=".5" width="586.28" height="163.85"/>
  <g>
    <path class="cls-3" d="M96.24,114.28v-27.12l-23.6-37.31h15.25l15.16,25.49,14.85-25.49h14.98l-23.69,37.4v27.03h-12.96Z"/>
    <path class="cls-3" d="M136.72,82.46c0-6.57,.98-12.07,2.95-16.53,1.47-3.28,3.46-6.23,6-8.83,2.53-2.61,5.31-4.54,8.32-5.8,4.01-1.7,8.64-2.55,13.89-2.55,9.49,0,17.09,2.95,22.79,8.83s8.55,14.08,8.55,24.56-2.83,18.54-8.48,24.41c-5.66,5.87-13.22,8.81-22.67,8.81s-17.2-2.92-22.85-8.76c-5.66-5.85-8.48-13.89-8.48-24.15h-.02Zm13.4-.44c0,7.3,1.68,12.82,5.05,16.59s7.65,5.65,12.83,5.65,9.44-1.87,12.77-5.6,4.99-9.34,4.99-16.81-1.62-12.89-4.85-16.53c-3.24-3.63-7.54-5.45-12.9-5.45s-9.68,1.84-12.96,5.52-4.92,9.22-4.92,16.63h0Z"/>
    <path class="cls-3" d="M209.28,49.85h13.01v34.9c0,5.54,.16,9.13,.49,10.77,.56,2.64,1.88,4.75,3.98,6.35,2.09,1.6,4.96,2.39,8.59,2.39s6.47-.76,8.35-2.26c1.87-1.51,3-3.36,3.39-5.56,.38-2.2,.57-5.85,.57-10.94V49.85h13.01v33.84c0,7.74-.35,13.2-1.06,16.39s-2,5.89-3.89,8.09-4.42,3.95-7.58,5.25c-3.16,1.3-7.3,1.96-12.39,1.96-6.16,0-10.82-.71-14-2.13-3.18-1.42-5.69-3.26-7.54-5.54-1.84-2.27-3.06-4.65-3.65-7.14-.85-3.7-1.27-9.14-1.27-16.35V49.85h0Z"/>
  </g>
  <rect class="cls-2" x="277.13" y="26.87" width="265.99" height="113.85" rx="9.96" ry="9.96"/>
  <g>
    <path d="M294.67,114.28V50.38h13.01v53.05h32.35v10.86h-45.36Z"/>
    <path d="M346.66,82.46c0-6.57,.98-12.07,2.95-16.53,1.47-3.28,3.46-6.23,6-8.83,2.54-2.61,5.31-4.54,8.32-5.8,4.01-1.7,8.64-2.55,13.89-2.55,9.49,0,17.09,2.95,22.79,8.83,5.7,5.89,8.55,14.08,8.55,24.56s-2.83,18.54-8.48,24.41c-5.66,5.87-13.22,8.81-22.67,8.81s-17.2-2.92-22.85-8.76c-5.66-5.85-8.48-13.89-8.48-24.15h-.02Zm13.4-.44c0,7.3,1.68,12.82,5.05,16.59s7.65,5.65,12.83,5.65,9.44-1.87,12.77-5.6c3.33-3.73,4.99-9.34,4.99-16.81s-1.62-12.89-4.85-16.53c-3.24-3.63-7.54-5.45-12.9-5.45s-9.68,1.84-12.96,5.52c-3.28,3.68-4.92,9.22-4.92,16.63h0Z"/>
    <path d="M416.01,93.32l12.66-1.23c.76,4.25,2.31,7.37,4.64,9.36,2.33,1.99,5.47,2.99,9.43,2.99,4.19,0,7.34-.89,9.47-2.66,2.12-1.77,3.19-3.84,3.19-6.22,0-1.52-.45-2.82-1.34-3.89s-2.45-2-4.68-2.79c-1.53-.52-5-1.47-10.42-2.82-6.97-1.73-11.87-3.85-14.68-6.37-3.96-3.54-5.93-7.87-5.93-12.96,0-3.28,.93-6.35,2.79-9.2,1.86-2.85,4.54-5.03,8.04-6.53,3.5-1.5,7.73-2.25,12.68-2.25,8.09,0,14.17,1.77,18.26,5.32,4.09,3.55,6.23,8.28,6.44,14.2l-13.01,.57c-.56-3.31-1.75-5.69-3.58-7.14s-4.58-2.18-8.24-2.18-6.74,.78-8.88,2.33c-1.38,1-2.07,2.33-2.07,4,0,1.53,.64,2.83,1.94,3.91,1.64,1.38,5.62,2.82,11.95,4.31,6.33,1.5,11.01,3.04,14.04,4.64,3.03,1.6,5.41,3.78,7.12,6.55,1.71,2.77,2.57,6.19,2.57,10.26,0,3.7-1.03,7.15-3.08,10.37-2.05,3.22-4.95,5.62-8.7,7.18-3.75,1.57-8.42,2.35-14.02,2.35-8.15,0-14.4-1.88-18.76-5.65-4.37-3.76-6.97-9.25-7.82-16.46v.02Z"/>
    <path d="M479.35,114.28V49.85h47.77v10.9h-34.76v14.28h32.35v10.86h-32.35v17.54h35.99v10.86h-49Z"/>
  </g>
</svg>