<?xml version="1.0" encoding="UTF-8"?>
<svg id="Calque_3" data-name="Calque 3" xmlns="http://www.w3.org/2000/svg" viewBox="0 0 587.5 164.85">
  <defs>
    <style>
      .cls-1, .cls-2 {
        stroke: #000;
        stroke-miterlimit: 10;
      }

      .cls-3 {
        fill: #f2f2f2;
      }

      .cls-2 {
        fill: #f7971e;
      }
    </style>
  </defs>
  <rect class="cls-1" x=".72" y=".5" width="586.28" height="163"/>
  <g>
    <path class="cls-3" d="M105.2,114.17v-29.02l-25.25-39.92h16.32l16.22,27.27,15.89-27.27h16.03l-25.34,40.02v28.92h-13.87Z"/>
    <path class="cls-3" d="M148.5,80.11c0-7.03,1.05-12.92,3.15-17.68,1.57-3.51,3.71-6.66,6.42-9.45,2.71-2.79,5.68-4.86,8.91-6.21,4.29-1.82,9.25-2.72,14.86-2.72,10.15,0,18.28,3.15,24.39,9.45s9.15,15.07,9.15,26.28-3.03,19.84-9.07,26.12c-6.05,6.28-14.14,9.43-24.26,9.43s-18.4-3.13-24.45-9.38c-6.05-6.26-9.07-14.87-9.07-25.84h-.02Zm14.34-.47c0,7.81,1.8,13.72,5.41,17.75s8.18,6.04,13.73,6.04,10.1-2,13.66-5.99,5.34-10,5.34-17.99-1.73-13.79-5.19-17.68c-3.47-3.89-8.07-5.83-13.8-5.83s-10.36,1.96-13.87,5.9-5.27,9.86-5.27,17.8h0Z"/>
    <path class="cls-3" d="M226.14,45.22h13.92v37.34c0,5.93,.17,9.77,.52,11.52,.59,2.82,2.01,5.09,4.26,6.79,2.24,1.71,5.31,2.56,9.2,2.56s6.93-.81,8.93-2.42c2.01-1.62,3.21-3.6,3.62-5.95,.4-2.35,.61-6.26,.61-11.71V45.22h13.92v36.21c0,8.28-.38,14.12-1.13,17.54s-2.14,6.3-4.16,8.65-4.73,4.23-8.11,5.62c-3.38,1.4-7.81,2.1-13.26,2.1-6.59,0-11.57-.76-14.97-2.28-3.4-1.52-6.09-3.49-8.07-5.93-1.97-2.43-3.28-4.98-3.9-7.64-.91-3.95-1.36-9.78-1.36-17.49V45.22h0Z"/>
  </g>
  <rect class="cls-2" x="299.66" y="21.09" width="208.12" height="121.82" rx="10.66" ry="10.66"/>
  <g>
    <path d="M325.99,114.62l-16.46-68.94h14.25l10.39,47.35,12.61-47.35h16.55l12.09,48.15,10.58-48.15h14.02l-16.74,68.94h-14.77l-13.73-51.54-13.69,51.54h-15.1Z"/>
    <path d="M406.7,114.62V45.68h13.92V114.62h-13.92Z"/>
    <path d="M434.01,114.62V45.68h13.55l28.22,46.04V45.68h12.94V114.62h-13.97l-27.79-44.96v44.96h-12.94Z"/>
  </g>
</svg>